<svg xmlns="http://www.w3.org/2000/svg" viewBox="0 0 512 512" role="img" aria-labelledby="title desc">
  <title id="title">CFOP Trainer cube icon</title>
  <desc id="desc">A stylized speed cube app icon.</desc>
  <defs>
    <linearGradient id="bg" x1="80" y1="48" x2="432" y2="464" gradientUnits="userSpaceOnUse">
      <stop offset="0" stop-color="#172554" />
      <stop offset="0.48" stop-color="#111827" />
      <stop offset="1" stop-color="#020617" />
    </linearGradient>
    <linearGradient id="top" x1="160" y1="94" x2="344" y2="204" gradientUnits="userSpaceOnUse">
      <stop offset="0" stop-color="#f8fafc" />
      <stop offset="1" stop-color="#dbeafe" />
    </linearGradient>
    <linearGradient id="left" x1="116" y1="181" x2="249" y2="382" gradientUnits="userSpaceOnUse">
      <stop offset="0" stop-color="#22c55e" />
      <stop offset="1" stop-color="#15803d" />
    </linearGradient>
    <linearGradient id="right" x1="267" y1="177" x2="396" y2="384" gradientUnits="userSpaceOnUse">
      <stop offset="0" stop-color="#f97316" />
      <stop offset="1" stop-color="#dc2626" />
    </linearGradient>
    <filter id="shadow" x="-20%" y="-20%" width="140%" height="150%">
      <feDropShadow dx="0" dy="18" stdDeviation="18" flood-color="#020617" flood-opacity="0.45" />
    </filter>
  </defs>

  <rect width="512" height="512" rx="112" fill="url(#bg)" />
  <circle cx="398" cy="112" r="74" fill="#38bdf8" opacity="0.16" />
  <circle cx="132" cy="406" r="96" fill="#6f7cff" opacity="0.16" />

  <g filter="url(#shadow)">
    <path d="M256 68 407 153 256 241 105 153Z" fill="url(#top)" />
    <path d="M105 153 256 241v181L105 333Z" fill="url(#left)" />
    <path d="M407 153 256 241v181l151-89Z" fill="url(#right)" />

    <path d="M105 153 256 68l151 85-151 88Z" fill="none" stroke="#0f172a" stroke-width="12" stroke-linejoin="round" />
    <path d="M105 153v180l151 89 151-89V153" fill="none" stroke="#0f172a" stroke-width="12" stroke-linejoin="round" />
    <path d="M256 241v181M105 153l151 88 151-88" fill="none" stroke="#0f172a" stroke-width="10" stroke-linejoin="round" />

    <path d="M155 125 306 211M206 96l151 86" stroke="#0f172a" stroke-width="8" stroke-linecap="round" opacity="0.72" />
    <path d="M155 182v180M206 211v180" stroke="#0f172a" stroke-width="8" stroke-linecap="round" opacity="0.65" />
    <path d="M306 211v180M357 182v180" stroke="#0f172a" stroke-width="8" stroke-linecap="round" opacity="0.65" />
    <path d="M131 242 256 316M131 301l125 74M381 242 256 316M381 301l-125 74" stroke="#0f172a" stroke-width="8" stroke-linecap="round" opacity="0.6" />
  </g>

  <path d="M140 420c36 22 74 34 116 34 43 0 82-12 116-34" fill="none" stroke="#8b9cff" stroke-width="16" stroke-linecap="round" opacity="0.8" />
</svg>
